<svg width="150" height="150" viewBox="0 0 150 150" fill="none" xmlns="http://www.w3.org/2000/svg">
<path d="M115.268 40.6001C108.247 32.2326 98.8122 26.2388 88.2541 23.4388C77.696 20.6388 66.5307 21.1693 56.2856 24.9579C46.0406 28.7464 37.2164 35.6078 31.0203 44.6035C24.8242 53.5991 21.5588 64.2894 21.6709 75.2119C21.783 86.1344 25.2672 96.7555 31.6467 105.622C38.0262 114.488 46.9894 121.167 57.31 124.745C67.6306 128.322 78.8045 128.623 89.3029 125.607C99.8013 122.591 109.111 116.405 115.959 107.895L74.6681 74.6679L115.268 40.6001Z" fill="url(#paint0_linear_258_43)"/>
<rect x="117.668" y="63.7378" width="34.1392" height="5" rx="2.5" transform="rotate(-30 117.668 63.7378)" fill="url(#paint1_linear_258_43)"/>
<rect x="120.168" y="75.7378" width="34.2486" height="5" rx="2.5" transform="rotate(30 120.168 75.7378)" fill="url(#paint2_linear_258_43)"/>
<defs>
<linearGradient id="paint0_linear_258_43" x1="40.6004" y1="34.0675" x2="108.736" y2="115.268" gradientUnits="userSpaceOnUse">
<stop/>
<stop offset="1" stop-color="#666666"/>
</linearGradient>
<linearGradient id="paint1_linear_258_43" x1="134.738" y1="63.7378" x2="134.738" y2="68.7378" gradientUnits="userSpaceOnUse">
<stop/>
<stop offset="1" stop-color="#666666"/>
</linearGradient>
<linearGradient id="paint2_linear_258_43" x1="137.292" y1="75.7378" x2="137.292" y2="80.7378" gradientUnits="userSpaceOnUse">
<stop/>
<stop offset="1" stop-color="#666666"/>
</linearGradient>
</defs>
</svg>
