<svg width="206" height="61" viewBox="0 0 206 61" fill="none" xmlns="http://www.w3.org/2000/svg">
<path d="M35.1045 4.744L35.3605 4.808C36.4272 5.448 37.3445 6.17333 38.1125 6.984C38.9232 7.752 39.6485 8.584 40.2885 9.48C40.9712 10.3333 41.5045 11.272 41.8885 12.296C43.5098 16.2213 42.1018 20.616 37.6645 25.48C35.7872 27.528 33.6752 29.2773 31.3285 30.728C31.9258 31.1547 32.4805 31.4747 32.9925 31.688C33.5472 31.8587 34.3152 32.2213 35.2965 32.776C36.2778 33.288 36.9178 34.2907 37.2165 35.784C37.5152 37.2347 37.4298 38.8773 36.9605 40.712C36.5338 42.5467 35.7232 44.4453 34.5285 46.408C33.3765 48.328 31.8618 50.056 29.9845 51.592C25.7178 55.1333 20.7685 56.6267 15.1365 56.072C14.3258 56.072 13.8138 56.008 13.6005 55.88C13.3872 55.752 13.2165 55.6453 13.0885 55.56C12.9605 55.4747 12.6832 55.4107 12.2565 55.368C11.1898 56.2213 9.97383 56.7547 8.6085 56.968C7.24317 57.1813 5.94183 57.0747 4.7045 56.648C3.50983 56.2213 2.48583 55.496 1.6325 54.472C0.821833 53.448 0.4165 52.104 0.4165 50.44C0.5445 49.3307 0.757833 48.456 1.0565 47.816C0.9285 47.432 0.8645 46.9627 0.8645 46.408C2.31517 38.6853 3.6805 32.776 4.9605 28.68C7.56317 20.5307 10.3792 14.3867 13.4085 10.248C15.8832 6.74933 19.3178 4.488 23.7125 3.464C27.9365 2.48266 31.7338 2.90933 35.1045 4.744ZM15.2005 49.416C15.7125 49.288 16.1392 49.2667 16.4805 49.352C16.8645 49.3947 17.3125 49.3733 17.8245 49.288C19.0618 49.16 20.7258 48.392 22.8165 46.984C24.1392 45.6613 24.8432 44.36 24.9285 43.08C25.0138 41.8 24.8218 40.9893 24.3525 40.648C23.8832 40.264 23.2432 40.072 22.4325 40.072C21.6645 40.072 20.7898 40.2 19.8085 40.456C18.8698 40.6693 17.9525 40.7973 17.0565 40.84V40.968C16.8432 41.8213 16.6298 42.568 16.4165 43.208C16.2032 43.848 16.0112 44.4667 15.8405 45.064C15.4565 46.472 15.1578 47.9227 14.9445 49.416H15.2005ZM27.1045 16.136C25.8245 15.9653 24.4378 16.968 22.9445 19.144C22.0058 20.5093 21.2805 22.5787 20.7685 25.352C21.6645 24.968 22.5392 24.648 23.3925 24.392C24.2885 24.0933 25.1205 23.7733 25.8885 23.432C27.7658 22.6213 29.1098 21.64 29.9205 20.488C30.8592 19.3787 31.1578 18.44 30.8165 17.672C30.3045 16.9893 29.4725 16.3707 28.3205 15.816C27.9792 16.1147 27.5738 16.2213 27.1045 16.136ZM26.1445 15.88H26.3365H26.1445ZM68.062 25.544L68.318 25.608C68.4033 25.608 68.446 25.6293 68.446 25.672C69.5553 25.2453 70.4727 25.5653 71.198 26.632C71.6673 27.3573 72.03 28.4667 72.286 29.96C72.3713 32.008 72.158 34.8453 71.646 38.472C70.6647 45.8107 70.1313 50.184 70.046 51.592C70.1313 53.0853 69.214 54.1093 67.294 54.664C65.63 55.176 63.966 55.1547 62.302 54.6C60.5527 54.0027 59.8273 53.0853 60.126 51.848C59.7847 52.488 59.4433 52.936 59.102 53.192C58.7607 53.4907 58.078 53.8747 57.054 54.344C56.0727 54.856 54.6647 55.2613 52.83 55.56C50.9953 55.9013 49.1607 55.9867 47.326 55.816C45.4913 55.688 43.806 55.24 42.27 54.472C40.7767 53.7467 39.774 52.5947 39.262 51.016C38.2807 47.944 38.4087 44.04 39.646 39.304C40.4993 36.1893 42.0353 33.4373 44.254 31.048C46.814 28.3173 49.7153 26.056 52.958 24.264C55.39 22.9413 57.7367 22.152 59.998 21.896C60.766 21.8107 61.4273 21.832 61.982 21.96C62.5793 22.088 63.198 22.216 63.838 22.344C64.5207 22.472 65.1607 22.664 65.758 22.92C67.294 23.56 68.062 24.4347 68.062 25.544ZM56.222 42.504C56.5207 41.9067 56.7553 41.16 56.926 40.264C57.1393 39.368 57.4167 38.3867 57.758 37.32C54.302 38.728 51.6567 40.456 49.822 42.504C47.8167 44.7653 47.9447 46.3227 50.206 47.176C52.1687 47.688 53.598 47.368 54.494 46.216C54.878 45.704 55.2193 45.064 55.518 44.296C55.8167 43.528 56.1793 42.7387 56.606 41.928C56.478 42.1413 56.35 42.3333 56.222 42.504ZM85.2865 53.192L83.6865 54.664C82.8332 55.2613 82.0012 55.624 81.1905 55.752L81.2545 55.816L80.9345 56.072C77.9052 56.328 75.6652 55.6667 74.2145 54.088C72.7212 52.424 72.4012 50.248 73.2545 47.56C75.1318 36.936 77.7558 27.08 81.1265 17.992C83.3878 11.848 85.5638 7.73066 87.6545 5.64C88.7638 4.57333 89.7878 4.25333 90.7265 4.68C90.9825 3.656 91.4305 2.86666 92.0705 2.312C92.7105 1.71466 93.4145 1.37333 94.1825 1.288C94.9505 1.16 95.6972 1.288 96.4225 1.672C97.1478 2.01333 97.7025 2.65333 98.0865 3.592C98.5132 4.53066 98.6838 5.448 98.5985 6.344C98.5558 7.19733 98.3638 8.05066 98.0225 8.904C97.7238 9.71467 97.3398 10.5253 96.8705 11.336C96.4438 12.1467 96.0385 12.9573 95.6545 13.768C92.9238 20.3387 90.9825 25.2027 89.8305 28.36L90.4065 27.976C93.2225 26.0987 96.2305 25.2667 99.4305 25.48C100.839 25.608 102.097 25.992 103.207 26.632C104.359 27.2293 105.191 28.1467 105.703 29.384C106.257 30.6213 106.471 32.2213 106.343 34.184C106.257 36.104 105.895 38.1093 105.255 40.2C104.615 42.248 103.74 44.2533 102.631 46.216C101.564 48.1787 100.369 49.8853 99.0465 51.336C96.0598 54.6213 93.1798 55.8587 90.4065 55.048C89.2118 55.2187 87.8252 54.664 86.2465 53.384C85.9052 53.0853 85.5852 52.8507 85.2865 52.68V53.192ZM87.0145 48.584C87.6545 47.8587 88.7425 46.4933 90.2785 44.488C91.8572 42.4827 92.9025 40.9253 93.4145 39.816C93.9692 38.664 93.8412 37.5973 93.0305 36.616C92.2198 35.592 91.1958 36.36 89.9585 38.92C87.9958 43.016 87.0145 46.2373 87.0145 48.584ZM119.224 53.192L117.624 54.664C116.771 55.2613 115.939 55.624 115.128 55.752L115.192 55.816L114.872 56.072C111.843 56.328 109.603 55.6667 108.152 54.088C106.659 52.424 106.339 50.248 107.192 47.56C109.069 36.936 111.693 27.08 115.064 17.992C117.325 11.848 119.501 7.73066 121.592 5.64C122.701 4.57333 123.725 4.25333 124.664 4.68C124.92 3.656 125.368 2.86666 126.008 2.312C126.648 1.71466 127.352 1.37333 128.12 1.288C128.888 1.16 129.635 1.288 130.36 1.672C131.085 2.01333 131.64 2.65333 132.024 3.592C132.451 4.53066 132.621 5.448 132.536 6.344C132.493 7.19733 132.301 8.05066 131.96 8.904C131.661 9.71467 131.277 10.5253 130.808 11.336C130.381 12.1467 129.976 12.9573 129.592 13.768C126.861 20.3387 124.92 25.2027 123.768 28.36L124.344 27.976C127.16 26.0987 130.168 25.2667 133.368 25.48C134.776 25.608 136.035 25.992 137.144 26.632C138.296 27.2293 139.128 28.1467 139.64 29.384C140.195 30.6213 140.408 32.2213 140.28 34.184C140.195 36.104 139.832 38.1093 139.192 40.2C138.552 42.248 137.677 44.2533 136.568 46.216C135.501 48.1787 134.307 49.8853 132.984 51.336C129.997 54.6213 127.117 55.8587 124.344 55.048C123.149 55.2187 121.763 54.664 120.184 53.384C119.843 53.0853 119.523 52.8507 119.224 52.68V53.192ZM120.952 48.584C121.592 47.8587 122.68 46.4933 124.216 44.488C125.795 42.4827 126.84 40.9253 127.352 39.816C127.907 38.664 127.779 37.5973 126.968 36.616C126.157 35.592 125.133 36.36 123.896 38.92C121.933 43.016 120.952 46.2373 120.952 48.584ZM153.482 50.504C153.226 51.4 152.927 52.1893 152.586 52.872C152.244 53.5547 151.732 54.1947 151.05 54.792C150.367 55.3893 149.556 55.944 148.618 56.456C147.679 57.0107 146.783 57.3947 145.93 57.608C143.967 58.0347 142.943 57.4587 142.858 55.88C142.73 55.4533 142.452 55.1973 142.026 55.112C141.642 55.0693 141.279 54.9627 140.938 54.792C140.041 54.408 139.785 53.3627 140.169 51.656C140.852 49.3093 141.599 46.472 142.41 43.144C143.22 39.7733 144.266 36.0827 145.546 32.072C148.575 22.344 152.33 13.576 156.81 5.768C157.108 5.384 157.45 4.89333 157.833 4.296C158.218 3.656 158.708 3.08 159.306 2.568C160.799 1.20266 162.634 0.882664 164.81 1.608C164.767 2.16267 164.895 2.67466 165.194 3.144C165.492 3.57066 165.834 4.01866 166.218 4.488C167.199 5.59733 167.647 6.6 167.562 7.496C163.039 18.2053 158.964 30.1733 155.338 43.4C154.911 44.936 154.57 46.28 154.314 47.432C154.058 48.584 153.78 49.608 153.482 50.504ZM182.086 43.528C181.275 43.912 180.486 44.2107 179.718 44.424C178.95 44.6373 178.054 44.8507 177.03 45.064C174.342 45.6187 172.401 45.9387 171.206 46.024C171.334 46.4507 171.974 46.9627 173.126 47.56C173.894 47.688 174.726 47.5813 175.622 47.24C176.561 46.856 177.521 46.5147 178.502 46.216C179.526 45.8747 180.507 45.6827 181.446 45.64C182.427 45.5973 183.345 45.96 184.198 46.728C184.539 47.496 184.817 47.944 185.03 48.072C185.243 48.2 185.435 48.264 185.606 48.264C185.777 48.264 185.969 48.328 186.182 48.456C186.395 48.584 186.694 49.0747 187.078 49.928C187.505 50.7813 187.398 51.592 186.758 52.36C186.161 53.128 185.222 53.7893 183.942 54.344C182.662 54.8987 181.169 55.3467 179.462 55.688C177.755 56.0293 176.049 56.264 174.342 56.392C170.502 56.6907 167.579 56.392 165.574 55.496C162.673 54.5147 160.795 52.5733 159.942 49.672C158.833 45.832 159.451 41.352 161.798 36.232C162.865 33.8427 164.55 31.2827 166.854 28.552C168.859 26.1627 171.099 24.4347 173.574 23.368C176.433 22.1307 179.419 21.5547 182.534 21.64C185.862 21.7253 188.166 23.176 189.446 25.992C190.086 27.4853 190.214 29.576 189.83 32.264C189.147 35.7627 188.251 38.2373 187.142 39.688C186.033 41.096 184.347 42.376 182.086 43.528ZM178.374 33.416C176.113 32.9467 174.342 34.2267 173.062 37.256C172.678 38.0667 172.379 38.92 172.166 39.816C173.617 39.9867 175.153 39.176 176.774 37.384C177.371 36.6587 177.819 35.9333 178.118 35.208C178.417 34.44 178.502 33.8427 178.374 33.416ZM204.193 55.432C203.681 56.456 202.913 57.352 201.889 58.12C200.908 58.9307 199.905 59.4853 198.881 59.784C197.9 60.1253 197.238 60.296 196.897 60.296C196.556 60.296 195.681 60.1893 194.273 59.976H194.209C194.166 59.976 194.102 59.9333 194.017 59.848C191.798 58.824 190.689 57.4373 190.689 55.688C190.689 54.152 191.478 52.616 193.057 51.08C195.19 49.032 197.494 48.0933 199.969 48.264C200.268 48.3067 200.972 48.4773 202.081 48.776C202.209 48.904 202.294 48.968 202.337 48.968C204.769 50.8453 205.388 53 204.193 55.432Z" fill="url(#paint0_linear_258_47)"/>
<defs>
<linearGradient id="paint0_linear_258_47" x1="-46" y1="27.5" x2="253" y2="27.5" gradientUnits="userSpaceOnUse">
<stop/>
<stop offset="1" stop-color="#666666"/>
</linearGradient>
</defs>
</svg>
